<svg width="20" height="18" viewBox="0 0 20 18" fill="none" xmlns="http://www.w3.org/2000/svg">
<path fill-rule="evenodd" clip-rule="evenodd" d="M2.47957 0.205081C2.49265 0.20509 2.50578 0.20509 2.51894 0.20509L16.6337 0.205081C17.0144 0.205037 17.3635 0.205002 17.6474 0.243181C17.9602 0.285222 18.2907 0.384145 18.5625 0.655992C18.8344 0.92784 18.9333 1.25837 18.9753 1.57109C19.0135 1.85507 19.0135 2.20417 19.0134 2.58492V2.66364C19.0135 3.0444 19.0135 3.39349 18.9753 3.67747C18.9333 3.99019 18.8344 4.32072 18.5625 4.59257C18.3041 4.851 17.9926 4.95315 17.6939 4.99873V9.71155C17.6939 11.3283 17.6939 12.6088 17.5592 13.6109C17.4205 14.6424 17.1283 15.4771 16.47 16.1355C15.8117 16.7938 14.9769 17.086 13.9454 17.2247C12.9433 17.3594 11.6628 17.3594 10.0461 17.3594H9.06712C7.45042 17.3594 6.16989 17.3594 5.16771 17.2247C4.13632 17.086 3.30153 16.7938 2.64319 16.1355C1.98485 15.4771 1.69268 14.6424 1.55401 13.6109C1.41928 12.6088 1.41929 11.3283 1.4193 9.71155V4.99873C1.12053 4.95315 0.809077 4.851 0.550646 4.59257C0.278799 4.32072 0.179876 3.99019 0.137835 3.67747C0.0996553 3.39349 0.0996904 3.0444 0.0997344 2.66365C0.0997432 2.65056 0.0997432 2.63744 0.0997432 2.62428C0.0997432 2.61112 0.0997432 2.598 0.0997344 2.58492C0.0996904 2.20416 0.0996553 1.85507 0.137835 1.57109C0.179876 1.25837 0.278799 0.92784 0.550646 0.655992C0.822493 0.384145 1.15303 0.285222 1.46574 0.243181C1.74972 0.205002 2.09882 0.205037 2.47957 0.205081ZM2.73886 5.04348V9.66193C2.73886 11.3394 2.74026 12.5311 2.86181 13.4352C2.9808 14.3202 3.20396 14.8301 3.57626 15.2024C3.94856 15.5747 4.45848 15.7979 5.34355 15.9168C6.24759 16.0384 7.4393 16.0398 9.11673 16.0398H9.99644C11.6739 16.0398 12.8656 16.0384 13.7697 15.9168C14.6547 15.7979 15.1646 15.5747 15.5369 15.2024C15.9092 14.8301 16.1324 14.3202 16.2513 13.4352C16.3729 12.5311 16.3743 11.3394 16.3743 9.66193V5.04348H2.73886ZM1.48372 1.58907L1.48587 1.58787C1.48757 1.58698 1.49049 1.58555 1.49492 1.58373C1.51408 1.57585 1.55663 1.56239 1.64157 1.55097C1.82694 1.52605 2.08559 1.52465 2.51894 1.52465H16.5942C17.0276 1.52465 17.2862 1.52605 17.4716 1.55097C17.5566 1.56239 17.5991 1.57585 17.6182 1.58373C17.6227 1.58555 17.6256 1.58698 17.6273 1.58787L17.6295 1.58906L17.6306 1.59122C17.6316 1.59292 17.633 1.59584 17.6348 1.60027C17.6427 1.61943 17.6561 1.66197 17.6676 1.74692C17.6925 1.93229 17.6939 2.19093 17.6939 2.62428C17.6939 3.05763 17.6925 3.31627 17.6676 3.50164C17.6561 3.58659 17.6427 3.62913 17.6348 3.64829C17.633 3.65273 17.6316 3.65564 17.6306 3.65735L17.6295 3.6595L17.6273 3.6607C17.6256 3.66159 17.6227 3.66301 17.6182 3.66484C17.5991 3.67272 17.5566 3.68617 17.4716 3.69759C17.2862 3.72251 17.0276 3.72392 16.5942 3.72392H2.51894C2.08559 3.72392 1.82694 3.72251 1.64157 3.69759C1.55663 3.68617 1.51408 3.67272 1.49492 3.66484C1.49049 3.66301 1.48757 3.66159 1.48587 3.6607L1.48372 3.65949L1.48252 3.65735C1.48163 3.65564 1.48021 3.65273 1.47838 3.64829C1.4705 3.62913 1.45704 3.58659 1.44562 3.50164C1.4207 3.31627 1.4193 3.05763 1.4193 2.62428C1.4193 2.19093 1.4207 1.93229 1.44562 1.74692C1.45704 1.66197 1.4705 1.61943 1.47838 1.60027C1.48021 1.59584 1.48163 1.59292 1.48252 1.59122L1.48372 1.58907ZM1.48372 3.65949C1.48337 3.65913 1.48349 3.6592 1.48372 3.65949V3.65949ZM8.21785 6.80289H10.8953C11.0838 6.80288 11.257 6.80287 11.4024 6.81279C11.5587 6.82345 11.7305 6.84774 11.9051 6.92008C12.2824 7.0763 12.5821 7.37601 12.7383 7.75323C12.8106 7.92786 12.8349 8.09975 12.8456 8.25599C12.8555 8.4014 12.8555 8.57462 12.8555 8.76305V8.8014C12.8555 8.98984 12.8555 9.16305 12.8456 9.30847C12.8349 9.46479 12.8106 9.6366 12.7383 9.81122C12.5821 10.1884 12.2824 10.4882 11.9051 10.6444C11.7305 10.7167 11.5587 10.741 11.4024 10.7517C11.257 10.7616 11.0838 10.7616 10.8953 10.7616H8.21785C8.02942 10.7616 7.8562 10.7616 7.71079 10.7517C7.55451 10.741 7.38266 10.7167 7.20804 10.6444C6.83082 10.4882 6.53112 10.1884 6.37488 9.81122C6.30254 9.6366 6.27825 9.46479 6.26759 9.30847C6.25767 9.16305 6.25768 8.98984 6.25769 8.8014V8.76305C6.25768 8.57462 6.25767 8.4014 6.26759 8.25599C6.27825 8.09975 6.30254 7.92786 6.37488 7.75323C6.53112 7.37601 6.83082 7.0763 7.20804 6.92008C7.38266 6.84774 7.55451 6.82345 7.71079 6.81279C7.8562 6.80287 8.02942 6.80288 8.21785 6.80289ZM7.71035 8.1403C7.6586 8.16256 7.61735 8.20382 7.59511 8.25555C7.59347 8.26206 7.5881 8.28704 7.58409 8.3458C7.57761 8.44081 7.57725 8.56828 7.57725 8.78223C7.57725 8.99617 7.57761 9.12364 7.58409 9.21865C7.5881 9.27741 7.59347 9.3024 7.59511 9.30891C7.61735 9.36063 7.6586 9.40189 7.71035 9.42415C7.71683 9.42582 7.74181 9.43119 7.8006 9.43514C7.89561 9.44165 8.02308 9.44201 8.23703 9.44201H10.8761C11.0901 9.44201 11.2176 9.44165 11.3126 9.43514C11.3713 9.43119 11.3963 9.42582 11.4028 9.42415C11.4546 9.40189 11.4958 9.36063 11.5181 9.30891C11.5197 9.3024 11.5251 9.27741 11.5291 9.21865C11.5356 9.12364 11.5359 8.99617 11.5359 8.78223C11.5359 8.56828 11.5356 8.44081 11.5291 8.3458C11.5251 8.28704 11.5197 8.26206 11.5181 8.25555C11.4958 8.20382 11.4546 8.16256 11.4028 8.1403C11.3963 8.13863 11.3713 8.13327 11.3126 8.12931C11.2176 8.1228 11.0901 8.12245 10.8761 8.12245H8.23703C8.02308 8.12245 7.89561 8.1228 7.8006 8.12931C7.74181 8.13327 7.71682 8.13863 7.71035 8.1403Z" fill="#D9D9D9"/>
</svg>
