<svg width="22" height="22" viewBox="0 0 22 22" fill="none" xmlns="http://www.w3.org/2000/svg">
<path d="M11 6.64587C11.3797 6.64587 11.6875 6.95368 11.6875 7.33337V11C11.6875 11.3797 11.3797 11.6875 11 11.6875C10.6203 11.6875 10.3125 11.3797 10.3125 11V7.33337C10.3125 6.95368 10.6203 6.64587 11 6.64587Z" fill="#D9D9D9"/>
<path d="M11 14.6667C11.5063 14.6667 11.9167 14.2563 11.9167 13.75C11.9167 13.2438 11.5063 12.8334 11 12.8334C10.4938 12.8334 10.0834 13.2438 10.0834 13.75C10.0834 14.2563 10.4938 14.6667 11 14.6667Z" fill="#D9D9D9"/>
<path fill-rule="evenodd" clip-rule="evenodd" d="M7.99644 1.88023C9.32002 1.42691 10.1406 1.14587 11 1.14587C11.8594 1.14587 12.68 1.42691 14.0036 1.88023L14.6703 2.10849C16.0283 2.57331 17.0762 2.93202 17.8264 3.23678C18.2043 3.3903 18.5291 3.53899 18.7908 3.69092C19.0426 3.83712 19.2951 4.01948 19.4667 4.26395C19.6363 4.5056 19.724 4.80268 19.7791 5.08866C19.8364 5.38597 19.871 5.74263 19.8932 6.15212C19.9375 6.96524 19.9375 8.07918 19.9375 9.52402V10.9922C19.9375 16.5847 15.7135 19.2661 13.2016 20.3634L13.1767 20.3742C12.8652 20.5104 12.5725 20.6382 12.236 20.7244C11.8808 20.8153 11.5035 20.8542 11 20.8542C10.4965 20.8542 10.1192 20.8153 9.76397 20.7244C9.42755 20.6382 9.13479 20.5104 8.82331 20.3742L8.79847 20.3634C6.28653 19.2661 2.0625 16.5847 2.0625 10.9922V9.52412C2.0625 8.07923 2.0625 6.96525 2.10678 6.15212C2.12907 5.74263 2.16362 5.38597 2.22091 5.08866C2.27602 4.80268 2.36372 4.5056 2.53333 4.26395C2.70492 4.01948 2.95748 3.83712 3.20923 3.69092C3.47084 3.53899 3.79572 3.3903 4.17361 3.23678C4.92378 2.93202 5.97174 2.57331 7.32962 2.1085L7.99644 1.88023ZM11 2.52087C10.3971 2.52087 9.80384 2.71488 8.3239 3.22148L7.79882 3.40121C6.41228 3.87584 5.40109 4.22225 4.69112 4.51067C4.33675 4.65464 4.07999 4.77528 3.89977 4.87994C3.81079 4.93162 3.74948 4.97426 3.70853 5.00754C3.67382 5.03576 3.66058 5.05174 3.65868 5.05407C3.65691 5.05695 3.64552 5.07599 3.62948 5.12104C3.61115 5.17247 3.59085 5.24621 3.57107 5.34885C3.53104 5.55659 3.5007 5.84197 3.47974 6.22688C3.43776 6.99797 3.4375 8.07434 3.4375 9.54868V10.9922C3.4375 15.736 6.98491 18.0707 9.3489 19.1034C9.68944 19.2521 9.88607 19.3363 10.105 19.3923C10.3141 19.4458 10.5692 19.4792 11 19.4792C11.4308 19.4792 11.6859 19.4458 11.895 19.3923C12.1139 19.3363 12.3106 19.2521 12.6511 19.1034C15.0151 18.0707 18.5625 15.736 18.5625 10.9922V9.54868C18.5625 8.07434 18.5622 6.99797 18.5202 6.22688C18.4993 5.84197 18.469 5.55659 18.4289 5.34885C18.4091 5.24621 18.3889 5.17247 18.3706 5.12104C18.3545 5.07596 18.3431 5.05692 18.3413 5.05406C18.3394 5.05172 18.3262 5.03574 18.2914 5.00754C18.2506 4.97426 18.1892 4.93162 18.1002 4.87994C17.92 4.77528 17.6633 4.65464 17.3089 4.51067C16.5989 4.22225 15.5877 3.87584 14.2012 3.40121L13.6761 3.22148C12.1962 2.71488 11.6029 2.52087 11 2.52087Z" fill="#D9D9D9"/>
</svg>
