<svg width="27" height="16" viewBox="0 0 27 16" fill="none" xmlns="http://www.w3.org/2000/svg">
<path d="M0 8.43604C0 4.2939 3.35786 0.936035 7.5 0.936035H19.4098C23.5519 0.936035 26.9098 4.2939 26.9098 8.43604C26.9098 12.5782 23.552 15.936 19.4098 15.936H7.50001C3.35787 15.936 0 12.5782 0 8.43604Z" fill="#EAE9E9"/>
<path d="M5.78192 11.968H4.69297V5.66831H9.81373V6.69426H5.78192V8.30519H9.36375V9.33114H5.78192V11.968ZM10.889 11.968V5.66831H11.9779V10.9421H15.8477V11.968H10.889ZM16.35 8.81816C16.35 7.69022 16.605 6.87125 17.115 6.36128C17.631 5.8453 18.4529 5.58731 19.5809 5.58731C20.5108 5.58731 21.2278 5.76131 21.7318 6.10929C22.2358 6.45127 22.5627 6.99425 22.7127 7.73821H21.5698C21.2998 6.98825 20.6368 6.61327 19.5809 6.61327C18.8309 6.61327 18.2849 6.79026 17.943 7.14424C17.607 7.49223 17.439 8.0502 17.439 8.81816C17.439 9.59213 17.616 10.1531 17.9699 10.5011C18.3299 10.8491 18.9239 11.0231 19.7519 11.0231C20.3998 11.0231 20.8708 10.9241 21.1648 10.7261C21.4648 10.5281 21.6148 10.2131 21.6148 9.78112V9.50213H19.5269V8.54818H22.7037V9.78112C22.7037 10.5731 22.4667 11.1491 21.9928 11.509C21.5248 11.869 20.7748 12.049 19.7429 12.049C18.5369 12.049 17.67 11.794 17.142 11.284C16.614 10.7741 16.35 9.95211 16.35 8.81816Z" fill="#515151"/>
</svg>
