<svg width="20" height="20" viewBox="0 0 20 20" fill="none" xmlns="http://www.w3.org/2000/svg">
<path fill-rule="evenodd" clip-rule="evenodd" d="M9.55646 0.212646C9.0245 0.212646 8.53459 0.344858 7.99832 0.566658C7.48042 0.780832 6.87892 1.0965 6.12991 1.48957L4.31111 2.44403C3.39184 2.92643 2.65618 3.31248 2.08816 3.69181C1.4997 4.0848 1.04646 4.49859 0.71639 5.05911C0.387432 5.61775 0.239448 6.22266 0.168482 6.94304C0.0996008 7.64228 0.0996008 8.50221 0.0996096 9.58381V9.75518C0.0996008 10.8367 0.0996008 11.6967 0.168482 12.396C0.239448 13.1164 0.387432 13.7213 0.71639 14.2799C1.04646 14.8404 1.4997 15.2542 2.08816 15.6472C2.65618 16.0265 3.39183 16.4125 4.31109 16.895L6.12983 17.8494C6.87888 18.2425 7.4804 18.5581 7.99832 18.7724C8.53459 18.9941 9.0245 19.1263 9.55646 19.1263C10.0884 19.1263 10.5783 18.9941 11.1146 18.7724C11.6325 18.5581 12.234 18.2425 12.983 17.8495L14.8018 16.895C15.7211 16.4125 16.4567 16.0265 17.0247 15.6472C17.6133 15.2542 18.0665 14.8404 18.3965 14.2799C18.7255 13.7213 18.8734 13.1164 18.9444 12.396C19.0133 11.6967 19.0133 10.8368 19.0133 9.75527V9.58373C19.0133 8.50221 19.0133 7.64227 18.9444 6.94304C18.8734 6.22266 18.7255 5.61775 18.3965 5.05911C18.0665 4.49859 17.6133 4.0848 17.0247 3.69181C16.4567 3.31248 15.7211 2.92643 14.8018 2.44402L12.983 1.48958C12.234 1.09651 11.6325 0.780841 11.1146 0.566658C10.5783 0.344858 10.0884 0.212646 9.55646 0.212646ZM6.71571 2.67238C7.4984 2.26163 8.04688 1.97452 8.50257 1.78606C8.94612 1.60262 9.2578 1.53221 9.55646 1.53221C9.85512 1.53221 10.1668 1.60262 10.6103 1.78606C11.066 1.97452 11.6145 2.26163 12.3972 2.67238L14.1566 3.59567C15.1152 4.09874 15.7887 4.45312 16.2919 4.78916C16.5402 4.95495 16.7352 5.1089 16.8928 5.2637L13.9627 6.72871L6.48536 2.79326L6.71571 2.67238ZM5.10924 3.51541L4.9563 3.59567C3.99769 4.09873 3.3242 4.45312 2.821 4.78916C2.57274 4.95495 2.37766 5.1089 2.22018 5.2637L9.55646 8.93186L12.5098 7.45518L5.29049 3.65555C5.22035 3.61863 5.15961 3.57087 5.10924 3.51541ZM1.58427 6.42107C1.53985 6.60922 1.50627 6.82288 1.48168 7.07241C1.41991 7.69948 1.41917 8.49456 1.41917 9.61803V9.72096C1.41917 10.8444 1.41991 11.6395 1.48168 12.2666C1.5421 12.8799 1.65688 13.2765 1.85346 13.6103C2.04893 13.9422 2.33166 14.223 2.821 14.5498C3.3242 14.8859 3.99769 15.2402 4.9563 15.7433L6.71571 16.6666C7.4984 17.0773 8.04688 17.3645 8.50257 17.5529C8.64649 17.6125 8.77651 17.6601 8.89668 17.6973V10.0772L1.58427 6.42107ZM10.2162 17.6973C10.3364 17.6601 10.4664 17.6125 10.6103 17.5529C11.066 17.3645 11.6145 17.0773 12.3972 16.6666L14.1566 15.7433C15.1152 15.2402 15.7887 14.8859 16.2919 14.5498C16.7812 14.223 17.064 13.9422 17.2594 13.6103C17.4561 13.2765 17.5709 12.8799 17.6312 12.2666C17.693 11.6395 17.6938 10.8444 17.6938 9.72096V9.61803C17.6938 8.49456 17.693 7.69948 17.6312 7.07241C17.6067 6.82287 17.5731 6.60922 17.5286 6.42106L14.6148 7.87799V10.5492C14.6148 10.9136 14.3194 11.209 13.955 11.209C13.5906 11.209 13.2952 10.9136 13.2952 10.5492V8.53776L10.2162 10.0772V17.6973Z" fill="#D9D9D9"/>
</svg>
