<svg width="20" height="20" viewBox="0 0 20 20" fill="none" xmlns="http://www.w3.org/2000/svg">
<path fill-rule="evenodd" clip-rule="evenodd" d="M9.50597 0.438477H9.60696C11.6377 0.438468 13.2291 0.438459 14.4708 0.605401C15.7417 0.776275 16.7446 1.13286 17.5318 1.92003C18.319 2.7072 18.6755 3.71008 18.8464 4.98103C19.0133 6.22272 19.0133 7.81414 19.0133 9.84483V9.94582C19.0133 11.9765 19.0133 13.5679 18.8464 14.8096C18.6755 16.0805 18.319 17.0835 17.5318 17.8707C16.7446 18.6578 15.7417 19.0144 14.4708 19.1853C13.2291 19.3522 11.6377 19.3522 9.60696 19.3522H9.50597C7.47528 19.3522 5.88385 19.3522 4.64216 19.1853C3.37121 19.0144 2.36833 18.6578 1.58116 17.8707C0.793989 17.0835 0.437408 16.0805 0.266534 14.8096C0.0995919 13.5679 0.0996007 11.9765 0.0996095 9.94582V9.84483C0.0996007 7.81414 0.0995919 6.22272 0.266534 4.98103C0.437408 3.71008 0.793989 2.7072 1.58116 1.92003C2.36833 1.13286 3.37121 0.776275 4.64216 0.605401C5.88385 0.438459 7.47528 0.438468 9.50597 0.438477ZM4.81799 1.91319C3.69336 2.0644 3.01535 2.35196 2.51423 2.8531C2.0131 3.35422 1.72553 4.03223 1.57432 5.15686C1.42057 6.30046 1.41917 7.80318 1.41917 9.89533C1.41917 11.9874 1.42057 13.4902 1.57432 14.6338C1.72553 15.7584 2.0131 16.4364 2.51423 16.9376C3.01535 17.4387 3.69336 17.7263 4.81799 17.8774C5.96159 18.0312 7.46431 18.0326 9.55646 18.0326C11.6486 18.0326 13.1513 18.0312 14.2949 17.8774C15.4195 17.7263 16.0975 17.4387 16.5987 16.9376C17.0999 16.4364 17.3874 15.7584 17.5386 14.6338C17.6923 13.4902 17.6938 11.9874 17.6938 9.89533C17.6938 7.80318 17.6923 6.30046 17.5386 5.15686C17.3874 4.03223 17.0999 3.35422 16.5987 2.8531C16.0975 2.35196 15.4195 2.0644 14.2949 1.91319C13.1513 1.75944 11.6486 1.75804 9.55646 1.75804C7.46431 1.75804 5.96159 1.75944 4.81799 1.91319ZM11.4992 5.27687C10.0189 5.27687 8.82358 6.47125 8.82358 7.93891C8.82358 8.26523 8.89853 8.55281 8.97612 8.76147C9.01447 8.86466 9.05221 8.94507 9.07869 8.99679C9.0918 9.02257 9.102 9.04096 9.10781 9.05116L9.11274 9.05952C9.27522 9.3185 9.23678 9.65552 9.02019 9.87122L4.98365 13.8913C4.98365 13.8913 4.98015 13.8948 4.97431 13.9025C4.96864 13.91 4.96251 13.9192 4.95682 13.9294C4.9447 13.9511 4.93983 13.9678 4.93844 13.9764L4.93809 13.9789L4.93897 13.981C4.93991 13.983 4.94163 13.9863 4.94457 13.991C4.95036 14.0002 4.96194 14.0162 4.98365 14.0379L5.42223 14.4746L5.42507 14.4765C5.43346 14.482 5.44375 14.488 5.45525 14.4936C5.47969 14.5056 5.4999 14.5113 5.51239 14.5132C5.51559 14.5106 5.52067 14.5069 5.52627 14.5013L6.06925 13.9605C6.3267 13.7042 6.74297 13.7042 7.00041 13.9605C7.06758 14.0275 7.11677 14.0489 7.14226 14.0566C7.16842 14.0646 7.19466 14.0659 7.22519 14.0601C7.2584 14.0537 7.29655 14.0386 7.33398 14.0145C7.36784 13.9927 7.38996 13.9707 7.4003 13.9585C7.43124 13.9123 7.43279 13.8786 7.41206 13.8167C7.39941 13.7789 7.38046 13.7431 7.36325 13.716C7.35518 13.7033 7.34892 13.6948 7.3463 13.6913M8.71555 14.1784C8.67799 14.3597 8.6011 14.5487 8.46721 14.7353L8.46272 14.7415L8.45815 14.7477C8.25177 15.0217 7.89962 15.2745 7.47341 15.3561C7.19703 15.4091 6.90461 15.3865 6.62346 15.271L6.45743 15.4363C6.10605 15.7863 5.68256 15.8721 5.31944 15.8185C4.98914 15.7697 4.71883 15.6104 4.55511 15.4706C4.54227 15.4597 4.52986 15.4482 4.51789 15.4363L4.05249 14.9728C3.68282 14.6047 3.57054 14.165 3.63616 13.7635C3.69503 13.4034 3.88724 13.1209 4.05249 12.9563L7.75669 9.26722C7.7509 9.25226 7.7451 9.23704 7.73931 9.22147C7.623 8.90865 7.50402 8.46237 7.50402 7.93891C7.50402 5.73738 9.29528 3.9573 11.4992 3.9573C13.7032 3.9573 15.4945 5.73738 15.4945 7.93891C15.4945 10.1404 13.7032 11.9205 11.4992 11.9205C11.2914 11.9205 10.9709 11.8976 10.6422 11.8295C10.5137 11.803 10.3668 11.7661 10.2165 11.7135C10.2343 11.7424 10.2561 11.78 10.2793 11.8254C10.3273 11.9192 10.3854 12.0536 10.4247 12.2178C10.5055 12.5558 10.5065 13.0354 10.1738 13.4993L10.1693 13.5056L10.1646 13.5117C9.97678 13.7611 9.62402 14.0648 9.13807 14.157C8.99864 14.1835 8.85727 14.1908 8.71555 14.1784ZM7.3463 13.6913C7.12843 13.4293 7.1456 13.0431 7.38792 12.8018L7.54306 12.6473C7.80048 12.3909 8.21675 12.3909 8.47425 12.6473C8.60356 12.7761 8.70183 12.8272 8.76121 12.8479C8.81768 12.8675 8.85894 12.8669 8.89211 12.8606C8.97357 12.8451 9.05987 12.7817 9.10605 12.7237C9.15655 12.6499 9.15699 12.5903 9.14133 12.5247C9.13209 12.4862 9.11749 12.4515 9.10491 12.427C9.10033 12.4182 9.09664 12.4117 9.09453 12.4082L9.07121 12.3757L9.0479 12.3293C9.04649 12.327 9.03972 12.3172 9.01658 12.2916L9.01482 12.2898C8.99961 12.2741 8.887 12.1579 8.819 12.036C8.70473 11.8311 8.67323 11.5801 8.77185 11.3268C8.84654 11.135 8.98157 10.9829 9.09444 10.8705L9.55989 10.407C9.80093 10.1669 10.185 10.1495 10.4468 10.3668C10.5055 10.4155 10.6591 10.4855 10.9096 10.5374C11.1408 10.5853 11.3709 10.6009 11.4992 10.6009C12.9795 10.6009 14.1749 9.40656 14.1749 7.93891C14.1749 6.47125 12.9795 5.27687 11.4992 5.27687M11.4992 7.43992C11.2185 7.43992 10.9955 7.66587 10.9955 7.93891C10.9955 8.21192 11.2185 8.43792 11.4992 8.43792C11.78 8.43792 12.003 8.21192 12.003 7.93891C12.003 7.66587 11.78 7.43992 11.4992 7.43992ZM9.67593 7.93891C9.67593 6.93201 10.4948 6.12036 11.4992 6.12036C12.5037 6.12036 13.3226 6.93201 13.3226 7.93891C13.3226 8.94586 12.5037 9.75748 11.4992 9.75748C10.4948 9.75748 9.67593 8.94586 9.67593 7.93891Z" fill="#D9D9D9"/>
</svg>
