<svg width="22" height="22" viewBox="0 0 22 22" fill="none" xmlns="http://www.w3.org/2000/svg">
<path fill-rule="evenodd" clip-rule="evenodd" d="M8.74741 1.09961H8.79705C9.16142 1.09961 9.45683 1.39501 9.45683 1.75939C9.45683 2.12377 9.16142 2.41917 8.79705 2.41917C7.1196 2.41917 5.92789 2.42057 5.02385 2.54212C4.13879 2.66111 3.62886 2.88426 3.25656 3.25656C2.88426 3.62886 2.66111 4.13879 2.54212 5.02385C2.42057 5.92789 2.41917 7.1196 2.41917 8.79705C2.41917 9.16142 2.12377 9.45683 1.75939 9.45683C1.39501 9.45683 1.09961 9.16142 1.09961 8.79705V8.74741C1.09959 7.13072 1.09958 5.8502 1.23433 4.84802C1.37299 3.81664 1.66516 2.98184 2.32349 2.32349C2.98184 1.66516 3.81664 1.37299 4.84802 1.23433C5.8502 1.09958 7.13072 1.09959 8.74741 1.09961ZM16.0891 2.54212C15.185 2.42057 13.9933 2.41917 12.3159 2.41917C11.9515 2.41917 11.6561 2.12377 11.6561 1.75939C11.6561 1.39501 11.9515 1.09961 12.3159 1.09961H12.3655C13.9822 1.09959 15.2627 1.09958 16.2649 1.23433C17.2962 1.37299 18.1311 1.66516 18.7895 2.32349C19.4477 2.98184 19.7399 3.81664 19.8786 4.84802C20.0133 5.8502 20.0133 7.13073 20.0133 8.74742V8.79705C20.0133 9.16142 19.7179 9.45683 19.3535 9.45683C18.9892 9.45683 18.6938 9.16142 18.6938 8.79705C18.6938 7.1196 18.6923 5.92789 18.5708 5.02385C18.4518 4.13879 18.2286 3.62886 17.8564 3.25656C17.4841 2.88426 16.9741 2.66111 16.0891 2.54212ZM8.35485 5.52447C8.16947 5.49954 7.91084 5.49815 7.47749 5.49815C6.83679 5.49815 6.42264 5.49954 6.11749 5.54057C5.83131 5.57905 5.74161 5.64117 5.69139 5.69139C5.64117 5.74161 5.57905 5.83131 5.54057 6.11749C5.49954 6.42264 5.49815 6.83679 5.49815 7.47749C5.49815 7.91084 5.49954 8.16947 5.52447 8.35485C5.53589 8.43979 5.54934 8.48234 5.55723 8.5015C5.55905 8.50593 5.56047 8.50885 5.56136 8.51055L5.56257 8.51269L5.56471 8.5139C5.56641 8.51479 5.56933 8.51622 5.57377 8.51804C5.59293 8.52592 5.63548 8.53937 5.72041 8.5508C5.90579 8.57572 6.16443 8.57712 6.59778 8.57712H7.47749C7.91084 8.57712 8.16947 8.57572 8.35485 8.5508C8.43979 8.53937 8.48234 8.52592 8.5015 8.51804C8.50593 8.51622 8.50885 8.51479 8.51055 8.5139L8.51269 8.51269L8.5139 8.51055C8.51479 8.50885 8.51622 8.50593 8.51804 8.5015C8.52592 8.48234 8.53937 8.43979 8.5508 8.35485C8.57572 8.16947 8.57712 7.91084 8.57712 7.47749V6.59778C8.57712 6.16443 8.57572 5.90579 8.5508 5.72041C8.53937 5.63548 8.52592 5.59293 8.51804 5.57377L8.51649 5.57013C8.5154 5.56767 8.5139 5.56471 8.5139 5.56471L8.51269 5.56257L8.51055 5.56136C8.50885 5.56047 8.50593 5.55905 8.5015 5.55723C8.48234 5.54934 8.43979 5.53589 8.35485 5.52447ZM8.53068 4.21668C8.84341 4.25872 9.17391 4.35764 9.44574 4.62949C9.71766 4.90134 9.81654 5.23187 9.85859 5.54459C9.89677 5.82857 9.89677 6.17767 9.89668 6.55842C9.89668 6.5715 9.89668 6.58462 9.89668 6.59778V7.47749C9.89668 7.49065 9.89668 7.50376 9.89668 7.51684C9.89677 7.8976 9.89677 8.2467 9.85859 8.53068C9.81654 8.84341 9.71766 9.17391 9.44574 9.44574C9.17391 9.71766 8.84341 9.81654 8.53068 9.85859C8.2467 9.89677 7.8976 9.89677 7.51684 9.89668C7.50376 9.89668 7.49065 9.89668 7.47749 9.89668H6.59778C6.58462 9.89668 6.5715 9.89668 6.55842 9.89668C6.17767 9.89677 5.82857 9.89677 5.54459 9.85859C5.23187 9.81654 4.90134 9.71766 4.62949 9.44574C4.35764 9.17391 4.25872 8.84341 4.21668 8.53068C4.1785 8.2467 4.17854 7.89761 4.17858 7.51685C4.17858 7.50377 4.17858 7.49065 4.17858 7.47749V7.43405C4.17855 6.84916 4.17852 6.34522 4.23278 5.94166C4.29093 5.50916 4.42205 5.09459 4.75832 4.75832C5.09459 4.42205 5.50916 4.29093 5.94166 4.23278C6.34522 4.17852 6.84916 4.17855 7.43405 4.17858H7.47749C7.49065 4.17858 7.50377 4.17858 7.51685 4.17858C7.89761 4.17854 8.2467 4.1785 8.53068 4.21668ZM13.5961 4.17858H13.6789C14.2637 4.17855 14.7677 4.17852 15.1712 4.23278C15.6038 4.29093 16.0183 4.42205 16.3546 4.75832C16.6908 5.09459 16.822 5.50916 16.8801 5.94166C16.9344 6.34522 16.9343 6.84917 16.9343 7.43406V7.51685C16.9344 7.8976 16.9344 8.2467 16.8962 8.53068C16.8542 8.84341 16.7553 9.17391 16.4834 9.44574C16.2116 9.71766 15.8811 9.81654 15.5683 9.85859C15.2844 9.89677 14.9353 9.89677 14.5545 9.89668H13.5961C13.2153 9.89677 12.8662 9.89677 12.5823 9.85859C12.2695 9.81654 11.939 9.71766 11.6672 9.44574C11.3953 9.17391 11.2964 8.84341 11.2543 8.53068C11.2162 8.2467 11.2162 7.8976 11.2162 7.51684V6.55842C11.2162 6.17767 11.2162 5.82857 11.2543 5.54459C11.2964 5.23187 11.3953 4.90134 11.6672 4.62949C11.939 4.35764 12.2695 4.25872 12.5823 4.21668C12.8662 4.1785 13.2153 4.17854 13.5961 4.17858ZM12.6024 5.56136L12.6002 5.56257L12.5991 5.56471C12.5982 5.56641 12.5967 5.56933 12.5949 5.57377C12.587 5.59293 12.5735 5.63548 12.5621 5.72041C12.5372 5.90579 12.5358 6.16443 12.5358 6.59778V7.47749C12.5358 7.91084 12.5372 8.16947 12.5621 8.35485C12.5735 8.43979 12.587 8.48234 12.5949 8.5015C12.5967 8.50593 12.5982 8.50885 12.5991 8.51055L12.6002 8.51269L12.6024 8.5139C12.6041 8.51479 12.607 8.51622 12.6115 8.51804C12.6305 8.52592 12.6731 8.53937 12.7581 8.5508C12.9435 8.57572 13.2021 8.57712 13.6354 8.57712H14.5151C14.9485 8.57712 15.2071 8.57572 15.3925 8.5508C15.4775 8.53937 15.52 8.52592 15.5391 8.51804C15.5436 8.51622 15.5465 8.51479 15.5482 8.5139L15.5504 8.51269L15.5515 8.51055C15.5524 8.50885 15.5539 8.50593 15.5557 8.5015C15.5636 8.48234 15.577 8.4398 15.5885 8.35485C15.6134 8.16947 15.6148 7.91084 15.6148 7.47749C15.6148 6.83679 15.6134 6.42264 15.5724 6.11749C15.5338 5.83131 15.4717 5.74161 15.4215 5.69139C15.3713 5.64117 15.2816 5.57905 14.9955 5.54057C14.6903 5.49954 14.2761 5.49815 13.6354 5.49815C13.2021 5.49815 12.9435 5.49954 12.7581 5.52447C12.6731 5.53589 12.6305 5.54934 12.6115 5.55723L12.6073 5.55899C12.6051 5.55998 12.6024 5.56136 12.6024 5.56136ZM6.55842 11.2162H7.51684C7.8976 11.2162 8.2467 11.2162 8.53068 11.2543C8.84341 11.2964 9.17391 11.3953 9.44574 11.6672C9.71766 11.939 9.81654 12.2695 9.85859 12.5823C9.89677 12.8662 9.89677 13.2153 9.89668 13.5961V14.5545C9.89677 14.9353 9.89677 15.2844 9.85859 15.5683C9.81654 15.8811 9.71766 16.2116 9.44574 16.4834C9.17391 16.7553 8.84341 16.8542 8.53068 16.8962C8.2467 16.9344 7.8976 16.9344 7.51685 16.9343H7.43406C6.84917 16.9343 6.34522 16.9344 5.94166 16.8801C5.50916 16.822 5.09459 16.6908 4.75832 16.3546C4.42205 16.0183 4.29093 15.6038 4.23278 15.1712C4.17852 14.7677 4.17855 14.2637 4.17858 13.6789V13.5961C4.17854 13.2153 4.1785 12.8662 4.21668 12.5823C4.25872 12.2695 4.35764 11.939 4.62949 11.6672C4.90134 11.3953 5.23187 11.2964 5.54459 11.2543C5.82857 11.2162 6.17767 11.2162 6.55842 11.2162ZM5.56471 12.5991L5.56257 12.6002L5.56136 12.6024C5.56047 12.6041 5.55905 12.607 5.55723 12.6115C5.54934 12.6305 5.53589 12.6731 5.52447 12.7581C5.49954 12.9435 5.49815 13.2021 5.49815 13.6354C5.49815 14.2761 5.49954 14.6903 5.54057 14.9955C5.57905 15.2816 5.64117 15.3713 5.69139 15.4215C5.74161 15.4717 5.83131 15.5338 6.11749 15.5724C6.42264 15.6134 6.83679 15.6148 7.47749 15.6148C7.91084 15.6148 8.16947 15.6134 8.35485 15.5885C8.4398 15.577 8.48234 15.5636 8.5015 15.5557C8.50593 15.5539 8.50885 15.5524 8.51055 15.5515L8.51269 15.5504L8.5139 15.5482C8.51479 15.5465 8.51622 15.5436 8.51804 15.5391C8.52592 15.52 8.53937 15.4775 8.5508 15.3925C8.57572 15.2071 8.57712 14.9485 8.57712 14.5151V13.6354C8.57712 13.2021 8.57572 12.9435 8.5508 12.7581C8.53937 12.6731 8.52592 12.6305 8.51804 12.6115C8.51622 12.607 8.51479 12.6041 8.5139 12.6024L8.51269 12.6002L8.51055 12.5991C8.50885 12.5982 8.50593 12.5967 8.5015 12.5949C8.48234 12.587 8.43979 12.5735 8.35485 12.5621C8.16947 12.5372 7.91084 12.5358 7.47749 12.5358H6.59778C6.16443 12.5358 5.90579 12.5372 5.72041 12.5621C5.63548 12.5735 5.59293 12.587 5.57377 12.5949C5.56933 12.5967 5.56641 12.5982 5.56471 12.5991ZM13.5961 11.2162H14.5545C14.9353 11.2162 15.2844 11.2162 15.5683 11.2543C15.8811 11.2964 16.2116 11.3953 16.4834 11.6672C16.7553 11.939 16.8542 12.2695 16.8962 12.5823C16.9344 12.8662 16.9344 13.2153 16.9343 13.5961V13.6789C16.9343 14.2637 16.9344 14.7677 16.8801 15.1712C16.822 15.6038 16.6908 16.0183 16.3546 16.3546C16.0183 16.6908 15.6038 16.822 15.1712 16.8801C14.7677 16.9344 14.2637 16.9343 13.6789 16.9343H13.5961C13.2153 16.9344 12.8662 16.9344 12.5823 16.8962C12.2695 16.8542 11.939 16.7553 11.6672 16.4834C11.3953 16.2116 11.2964 15.8811 11.2543 15.5683C11.2162 15.2844 11.2162 14.9353 11.2162 14.5545V13.5961C11.2162 13.2153 11.2162 12.8662 11.2543 12.5823C11.2964 12.2695 11.3953 11.939 11.6672 11.6672C11.939 11.3953 12.2695 11.2964 12.5823 11.2543C12.8662 11.2162 13.2153 11.2162 13.5961 11.2162ZM12.6024 12.5991L12.6004 12.6001L12.5991 12.6024L12.5973 12.6059C12.5973 12.6059 12.5958 12.6093 12.5949 12.6115C12.587 12.6305 12.5735 12.6731 12.5621 12.7581C12.5372 12.9435 12.5358 13.2021 12.5358 13.6354V14.5151C12.5358 14.9485 12.5372 15.2071 12.5621 15.3925C12.5735 15.4775 12.587 15.52 12.5949 15.5391C12.5959 15.5415 12.5975 15.545 12.5975 15.545L12.5991 15.5482L12.6002 15.5504L12.6024 15.5515C12.6041 15.5524 12.607 15.5539 12.6115 15.5557C12.6305 15.5636 12.6731 15.577 12.7581 15.5885C12.9435 15.6134 13.2021 15.6148 13.6354 15.6148C14.2761 15.6148 14.6903 15.6134 14.9955 15.5724C15.2816 15.5338 15.3713 15.4717 15.4215 15.4215C15.4717 15.3713 15.5338 15.2816 15.5724 14.9955C15.6134 14.6903 15.6148 14.2761 15.6148 13.6354C15.6148 13.2021 15.6134 12.9435 15.5885 12.7581C15.577 12.6731 15.5636 12.6305 15.5557 12.6115C15.5539 12.607 15.5524 12.6041 15.5515 12.6024L15.5504 12.6002L15.5482 12.5991C15.5465 12.5982 15.5436 12.5967 15.5391 12.5949C15.52 12.587 15.4775 12.5735 15.3925 12.5621C15.2071 12.5372 14.9485 12.5358 14.5151 12.5358H13.6354C13.2021 12.5358 12.9435 12.5372 12.7581 12.5621C12.6731 12.5735 12.6305 12.587 12.6115 12.5949C12.607 12.5967 12.6041 12.5982 12.6024 12.5991ZM1.75939 11.6561C2.12377 11.6561 2.41917 11.9515 2.41917 12.3159C2.41917 13.9933 2.42057 15.185 2.54212 16.0891C2.66111 16.9741 2.88426 17.4841 3.25656 17.8564C3.62886 18.2286 4.13879 18.4518 5.02385 18.5708C5.92789 18.6923 7.1196 18.6938 8.79705 18.6938C9.16142 18.6938 9.45683 18.9892 9.45683 19.3535C9.45683 19.7179 9.16142 20.0133 8.79705 20.0133H8.74742C7.13073 20.0133 5.8502 20.0133 4.84802 19.8786C3.81664 19.7399 2.98184 19.4477 2.32349 18.7895C1.66516 18.1311 1.37299 17.2962 1.23433 16.2649C1.09958 15.2627 1.09959 13.9822 1.09961 12.3655V12.3159C1.09961 11.9515 1.39501 11.6561 1.75939 11.6561ZM19.3535 11.6561C19.7179 11.6561 20.0133 11.9515 20.0133 12.3159V12.3655C20.0133 13.9822 20.0133 15.2627 19.8786 16.2649C19.7399 17.2962 19.4477 18.1311 18.7895 18.7895C18.1311 19.4477 17.2962 19.7399 16.2649 19.8786C15.2627 20.0133 13.9822 20.0133 12.3655 20.0133H12.3159C11.9515 20.0133 11.6561 19.7179 11.6561 19.3535C11.6561 18.9892 11.9515 18.6938 12.3159 18.6938C13.9933 18.6938 15.185 18.6923 16.0891 18.5708C16.9741 18.4518 17.4841 18.2286 17.8564 17.8564C18.2286 17.4841 18.4518 16.9741 18.5708 16.0891C18.6923 15.185 18.6938 13.9933 18.6938 12.3159C18.6938 11.9515 18.9892 11.6561 19.3535 11.6561Z" fill="#D9D9D9"/>
</svg>
